<svg width="24" height="24" viewBox="0 0 24 24" fill="none" xmlns="http://www.w3.org/2000/svg">
<g id="noun_578437">
<path id="Shape" d="M22.3188 20.4634C22.2031 20.4608 22.0805 20.4561 21.9701 20.4407C21.9647 20.44 21.9605 20.4393 21.9569 20.4385C21.9562 20.4345 21.9555 20.4298 21.9548 20.424C21.8543 19.5787 21.4065 19.1675 20.5864 19.1671C18.0396 19.166 15.4924 19.1664 12.9456 19.1671C12.1472 19.1675 11.7044 19.5615 11.5925 20.3721C11.5882 20.4028 11.5833 20.4243 11.5793 20.4389C11.5669 20.4418 11.5487 20.4451 11.5241 20.4477C11.4261 20.4579 11.3193 20.463 11.1974 20.463C11.1693 20.463 11.1408 20.4626 11.113 20.4623L11.0888 20.4619C10.6969 20.4619 10.3449 20.6272 10.0713 20.9398C9.64632 21.425 9.54693 22.0576 9.7906 22.7209C10.0125 23.3243 10.5369 23.6705 11.2291 23.6705H13.1732C14.3595 23.6705 15.5458 23.6705 16.7318 23.6709C17.4236 23.6709 18.1151 23.6712 18.8069 23.6712H19.5675C19.8194 23.6712 20.0716 23.6716 20.3235 23.672C20.5761 23.6723 20.8287 23.6727 21.0812 23.6727C21.5597 23.6727 21.9476 23.6716 22.3025 23.6691C23.197 23.6629 23.8215 22.9992 23.8204 22.0551C23.8201 21.1375 23.2023 20.4834 22.3188 20.4634Z" fill="#7B81EA"/>
<g id="Group 11">
<path id="Shape_2" d="M16.0028 7.21381L16.0006 7.21212C16.1084 7.07313 16.2034 6.95107 16.2946 6.83318C16.3282 6.78954 16.3614 6.74697 16.3942 6.70363C16.6481 6.37191 16.6154 6.11281 16.2797 5.86252C15.7064 5.43514 15.1323 5.00806 14.5581 4.58173C13.9857 4.1533 13.4121 3.72551 12.8388 3.29813C12.5031 3.04784 12.2375 3.08471 11.9741 3.40959C11.9399 3.45168 11.906 3.49381 11.8717 3.53664C11.7783 3.65284 11.6818 3.77402 11.5719 3.91131L11.5697 3.90961L8.35507 7.99049L8.35543 7.9909C8.28271 8.08335 8.21262 8.17228 8.14308 8.25937C8.07168 8.35006 8.00162 8.43862 7.93336 8.52883C7.71134 8.81938 7.74232 9.09787 8.03669 9.32501C8.14034 9.40546 8.15836 9.48256 8.15521 9.60702C8.14887 9.87849 8.18425 10.151 8.18831 10.423C8.18952 10.5065 8.16873 10.6114 8.11592 10.671C7.91411 10.8987 7.70034 11.1171 7.482 11.3302L6.32989 12.591C6.32989 12.591 6.32989 12.591 6.32996 12.5902C4.78462 14.3337 3.35402 16.1634 1.99094 18.0441L1.98782 18.0487L0.59243 20.1351L0.590698 20.1372C0.505804 20.2759 0.419792 20.4142 0.33525 20.5533C0.192552 20.7866 0.193791 21.0068 0.370593 21.2331C0.548065 21.4605 0.751582 21.6557 0.977361 21.822C1.20099 21.9907 1.44762 22.131 1.71994 22.2386C1.99037 22.3457 2.20928 22.2897 2.40358 22.0948C2.51936 21.979 2.63443 21.8625 2.75021 21.7467L2.75194 21.7446L4.45975 19.8915L4.46357 19.8877C5.97598 18.1181 7.42001 16.2985 8.74846 14.3934C8.74769 14.3933 8.74769 14.3933 8.74769 14.3933L9.69925 12.9831C9.854 12.7227 10.0155 12.4652 10.1889 12.2162C10.2345 12.1511 10.333 12.1045 10.4165 12.0836C10.6878 12.0168 10.9671 11.9789 11.235 11.9024C11.3576 11.8673 11.4388 11.8638 11.5455 11.9404C11.8477 12.1577 12.1325 12.1143 12.3628 11.8305C12.4343 11.7428 12.504 11.6538 12.5754 11.5635C12.6438 11.4759 12.7139 11.3866 12.787 11.2942L12.7874 11.2946L16.0028 7.21381Z" fill="#7B81EA"/>
<g id="Group">
<path id="Shape_3" d="M5.13617 8.33468C4.47693 7.81597 4.3532 6.83455 4.86068 6.15367L8.23438 1.62942C8.74186 0.94854 9.69637 0.816319 10.3556 1.33503C11.0148 1.85375 11.1386 2.83516 10.6311 3.51604L7.25739 8.04029C6.74995 8.72078 5.79541 8.8534 5.13617 8.33468Z" fill="#7B81EA"/>
<path id="Shape_4" d="M13.1185 14.6184C12.4593 14.0997 12.3355 13.1182 12.843 12.4374L16.2167 7.91311C16.7242 7.23223 17.6787 7.10001 18.3379 7.61872C18.9972 8.13744 19.1209 9.11885 18.6134 9.79973L15.2397 14.324C14.7322 15.0049 13.7777 15.1371 13.1185 14.6184Z" fill="#7B81EA"/>
</g>
</g>
</g>
</svg>
