<svg width="20" height="20" viewBox="0 0 20 20" fill="none" xmlns="http://www.w3.org/2000/svg">
<path id="Shape" fill-rule="evenodd" clip-rule="evenodd" d="M7.27127 3.42024C7.27127 4.29256 6.55389 5 5.66902 5C4.78444 5 4.06676 4.29256 4.06676 3.42024V1.57976C4.06676 0.70744 4.78444 0 5.66902 0C6.55389 0 7.27127 0.70744 7.27127 1.57976V3.42024ZM15.9329 3.42024C15.9329 4.29256 15.2156 5 14.3307 5C13.4461 5 12.7284 4.29256 12.7284 3.42024V1.57976C12.7284 0.70744 13.4461 0 14.3307 0C15.2156 0 15.9329 0.70744 15.9329 1.57976V3.42024ZM17.8871 2.63929H16.778V3.42024C16.778 4.75089 15.6803 5.83333 14.3307 5.83333C12.981 5.83333 11.8837 4.75089 11.8837 3.42024V2.63929H8.11631V3.42024C8.11631 4.75089 7.01867 5.83333 5.66902 5.83333C4.31937 5.83333 3.22202 4.75089 3.22202 3.42024V2.63929H2.1129C0.946446 2.63929 0.0003018 3.57232 0.0003018 4.72262V7.5H20V4.72232C19.9997 3.57202 19.0536 2.63929 17.8871 2.63929ZM2.1126 20C0.946144 20 0 19.067 0 17.9167V8.33333H19.9997V17.9167C19.9997 19.067 19.0536 20 17.8871 20H2.1126ZM14.7294 10.5988H17.432V13.264H14.7294V10.5988ZM17.432 14.4009H14.7294V17.0661H17.432V14.4009ZM10.6753 10.5988H13.3779V13.264H10.6753V10.5988ZM13.3779 14.4009H10.6753V17.0661H13.3779V14.4009ZM6.6218 10.5988H9.32412V13.264H6.6218V10.5988ZM9.32412 14.4009H6.6218V17.0661H9.32412V14.4009ZM2.56802 10.5988H5.27064V13.264H2.56802V10.5988ZM5.27064 14.4009H2.56802V17.0661H5.27064V14.4009Z" fill="#7B81EA"/>
</svg>
