<svg width="23" height="20" viewBox="0 0 23 20" fill="none" xmlns="http://www.w3.org/2000/svg">
<g id="noun_1378675">
<g id="Shape">
<path fill-rule="evenodd" clip-rule="evenodd" d="M22 15.3935V1.72684C22 1.4935 21.895 1.32684 21.72 1.12684C21.545 1.02684 21.335 0.960169 21.125 1.02684L3.275 5.6935C1.945 6.06017 1 7.1935 1 8.52684C1 9.86017 1.945 11.0268 3.275 11.3602L21.125 16.0268C21.16 16.0602 21.23 16.0602 21.3 16.0602C21.44 16.0602 21.58 16.0268 21.72 15.9268C21.895 15.7935 22 15.5935 22 15.3935ZM5.305 12.9602L10.415 14.2935L11.01 16.0935C11.22 16.7602 11.115 17.4268 10.695 17.9935C10.275 18.5602 9.61 18.8602 8.91 18.8602C7.965 18.8602 7.09 18.2602 6.81 17.3935L5.305 12.9602Z" fill="#7B81EA"/>
<path d="M21.72 1.12684L21.9081 0.96221L21.8805 0.930608L21.844 0.909775L21.72 1.12684ZM21.125 1.02684L21.1883 1.26903L21.2006 1.26512L21.125 1.02684ZM3.275 5.6935L3.21176 5.45161L3.20856 5.45249L3.275 5.6935ZM3.275 11.3602L3.33824 11.1183L3.33578 11.1177L3.275 11.3602ZM21.125 16.0268L21.2974 15.8458L21.2507 15.8013L21.1882 15.785L21.125 16.0268ZM21.72 15.9268L21.8654 16.1304L21.8715 16.1257L21.72 15.9268ZM10.415 14.2935L10.6524 14.215L10.6097 14.0859L10.4781 14.0516L10.415 14.2935ZM5.305 12.9602L5.36812 12.7183L4.91909 12.6011L5.06827 13.0405L5.305 12.9602ZM11.01 16.0935L11.2485 16.0184L11.2474 16.015L11.01 16.0935ZM10.695 17.9935L10.4942 17.8446L10.695 17.9935ZM6.81 17.3935L7.04792 17.3166L7.04673 17.3131L6.81 17.3935ZM21.75 1.72684V15.3935H22.25V1.72684H21.75ZM21.5319 1.29146C21.6953 1.47824 21.75 1.58641 21.75 1.72684H22.25C22.25 1.4006 22.0947 1.17544 21.9081 0.96221L21.5319 1.29146ZM21.2006 1.26512C21.3138 1.22919 21.4471 1.25886 21.596 1.3439L21.844 0.909775C21.6429 0.794813 21.3562 0.69115 21.0494 0.788554L21.2006 1.26512ZM3.33823 5.93537L21.1882 1.26871L21.0618 0.784965L3.21177 5.45163L3.33823 5.93537ZM1.25 8.52684C1.25 7.3187 2.10711 6.2748 3.34144 5.93451L3.20856 5.45249C1.78289 5.84554 0.75 7.06831 0.75 8.52684H1.25ZM3.33578 11.1177C2.11072 10.8106 1.25 9.73916 1.25 8.52684H0.75C0.75 9.98118 1.77928 11.243 3.21422 11.6027L3.33578 11.1177ZM21.1882 15.785L3.33823 11.1183L3.21177 11.602L21.0618 16.2687L21.1882 15.785ZM21.3 15.8102C21.2818 15.8102 21.2682 15.8101 21.2557 15.8098C21.2434 15.8094 21.2365 15.8087 21.2331 15.8083C21.2293 15.8078 21.2344 15.8081 21.2446 15.8118C21.2551 15.8158 21.2758 15.8252 21.2974 15.8458L20.9526 16.2079C21.028 16.2797 21.1191 16.2974 21.1657 16.3037C21.2164 16.3106 21.2694 16.3102 21.3 16.3102V15.8102ZM21.5747 15.7234C21.4828 15.789 21.3954 15.8102 21.3 15.8102V16.3102C21.4846 16.3102 21.6772 16.2647 21.8653 16.1303L21.5747 15.7234ZM21.75 15.3935C21.75 15.5069 21.6886 15.6365 21.5685 15.728L21.8715 16.1257C22.1014 15.9505 22.25 15.6801 22.25 15.3935H21.75ZM10.4781 14.0516L5.36812 12.7183L5.24188 13.2021L10.3519 14.5354L10.4781 14.0516ZM11.2474 16.015L10.6524 14.215L10.1776 14.372L10.7726 16.172L11.2474 16.015ZM10.8958 18.1424C11.3644 17.5101 11.482 16.7599 11.2485 16.0184L10.7716 16.1686C10.958 16.7604 10.8656 17.3435 10.4942 17.8446L10.8958 18.1424ZM8.91 19.1102C9.68077 19.1102 10.4239 18.7791 10.8958 18.1424L10.4942 17.8446C10.1261 18.3412 9.53923 18.6102 8.91 18.6102V19.1102ZM6.57211 17.4704C6.8882 18.4487 7.86575 19.1102 8.91 19.1102V18.6102C8.06425 18.6102 7.2918 18.0716 7.04789 17.3166L6.57211 17.4704ZM5.06827 13.0405L6.57327 17.4739L7.04673 17.3131L5.54173 12.8798L5.06827 13.0405Z" fill="white"/>
</g>
</g>
</svg>
