<svg width="20" height="20" viewBox="0 0 20 20" fill="none" xmlns="http://www.w3.org/2000/svg">
<g id="noun_555083">
<path id="Shape" fill-rule="evenodd" clip-rule="evenodd" d="M10 20C4.477 20 0 15.523 0 10C0 4.477 4.477 0 10 0C15.523 0 20 4.477 20 10C20 15.523 15.523 20 10 20ZM4 9C3.448 9 3 9.448 3 10C3 10.552 3.448 11 4 11C4.552 11 5 10.552 5 10C5 9.448 4.552 9 4 9ZM5.753 4.757C6.029 4.757 6.279 4.869 6.46 5.05C6.645 5.229 6.76 5.48 6.76 5.757C6.76 6.034 6.645 6.285 6.46 6.464C6.279 6.645 6.029 6.757 5.753 6.757C5.201 6.757 4.753 6.309 4.753 5.757C4.753 5.205 5.201 4.757 5.753 4.757ZM10 3C9.448 3 9 3.448 9 4C9 4.552 9.448 5 10 5C10.552 5 11 4.552 11 4C11 3.448 10.552 3 10 3ZM11.705 12.965C11.89 13.26 11.998 13.609 12 13.983V14C12 15.105 11.105 16 10 16C8.895 16 8 15.105 8 14V13.992H7.99L8.01 13.921C8.019 13.587 8.114 13.274 8.27 13.014L9.99 7.014L11.705 12.965ZM14.95 5.05C14.769 4.87 14.52 4.759 14.245 4.759C13.97 4.759 13.721 4.87 13.54 5.05C13.355 5.229 13.24 5.48 13.24 5.757C13.24 6.034 13.355 6.285 13.54 6.464C13.716 6.622 13.95 6.718 14.206 6.718C14.758 6.718 15.206 6.27 15.206 5.718C15.206 5.461 15.109 5.227 14.95 5.05ZM15 10C15 9.448 15.448 9 16 9C16.552 9 17 9.448 17 10C17 10.552 16.552 11 16 11C15.448 11 15 10.552 15 10Z" fill="#7B81EA"/>
</g>
</svg>
