<svg height="17" viewBox="0 0 17 17" width="17" xmlns="http://www.w3.org/2000/svg"><g fill="#676374"><path d="m8.5 4.25c-1.17370833 0-2.125-.95129167-2.125-2.125s.95129167-2.125 2.125-2.125 2.125.95129167 2.125 2.125-.95129167 2.125-2.125 2.125z"/><path d="m2.83333333 13.4583333v-5.66666663c0-.80041667.27695834-1.53141667.72675-2.125h-2.14341666c-.78270834 0-1.41666667.63395833-1.41666667 1.41666666v4.24999997h1.41666667v3.5416667c0 .391.31733333.7083333.70833333.7083333h1.41666667c.391 0 .70833333-.3173333.70833333-.7083333v-1.4166667z"/><path d="m9.91666667 17h-2.83333334c-.391 0-.70833333-.3173333-.70833333-.7083333v-4.25h-2.125v-4.25000003c0-1.17370834.95129167-2.125 2.125-2.125h4.25c1.1737083 0 2.125.95129166 2.125 2.125v4.25000003h-2.125v4.25c0 .391-.3173333.7083333-.70833333.7083333z"/><path d="m2.83333333 4.95833333c-.78270833 0-1.41666666-.63395833-1.41666666-1.41666666 0-.78270834.63395833-1.41666667 1.41666666-1.41666667.78270834 0 1.41666667.63395833 1.41666667 1.41666667 0 .78270833-.63395833 1.41666666-1.41666667 1.41666666z"/><path d="m14.1666667 13.4583333v-5.66666663c0-.80041667-.2769584-1.53141667-.72675-2.125h2.1434166c.7827084 0 1.4166667.63395833 1.4166667 1.41666666v4.24999997h-1.4166667v3.5416667c0 .391-.3173333.7083333-.7083333.7083333h-1.4166667c-.391 0-.7083333-.3173333-.7083333-.7083333v-1.4166667z"/><path d="m14.1666667 4.95833333c.7827083 0 1.4166666-.63395833 1.4166666-1.41666666 0-.78270834-.6339583-1.41666667-1.4166666-1.41666667-.7827084 0-1.4166667.63395833-1.4166667 1.41666667 0 .78270833.6339583 1.41666666 1.4166667 1.41666666z"/></g></svg>