<svg fill="none" height="21" viewBox="0 0 22 21" width="22" xmlns="http://www.w3.org/2000/svg"><path d="m21.6902 6.00743-1.5085 1.98911 1.5085 1.9891c.0948.12276.1136.29206.0483.43456-.0654.1424-.2031.2324-.3536.2308h-3.3426c-.2842-.0004-.5527-.1367-.7296-.3704l-.7274-.958h-1.6859c-.1252.7632-.359 1.5021-.6937 2.192l5.6751 5.9626c.0736.0777.1148.183.1145.2926v2.9589c-.0048.1513-.123.2714-.2671.2713h-2.8151c-.1043.0001-.2043-.0432-.2784-.1203l-.6959-.7362c-.0874-.09-.136-.2136-.1347-.3421v-1.5809c0-.1017-.0784-.1841-.1751-.1841h-1.3469c-.3336 0-.6039-.2841-.6039-.6347v-1.4157c0-.1017-.0784-.1841-.1751-.1841h-1.5086c-.1196.0007-.2347-.0475-.321-.1345l-.7072-.7432c-2.66696 1.4261-5.88887 1.0217-8.16134-1.0245-2.272464-2.0461-3.147236-5.33039-2.21587-8.31928.93137-2.98889 3.48516-5.092858 6.46897-5.329524 2.98384-.2366655 5.80904 1.440654 7.15664 4.248784h-3.2955c-1.5041-1.56897-3.82182-1.88417-5.65632-.76923-1.83449 1.11493-2.7308 3.38349-2.18741 5.53634.54339 2.15281 2.39172 3.65611 4.51079 3.66861 2.11906.0125 3.98334-1.4689 4.54964-3.61516h-2.88241c-.5346.73496-1.45426 1.03186-2.28921.73916-.83494-.29274-1.40086-1.11051-1.40866-2.03559s.54423-1.75327 1.3741-2.0615c.82988-.30824 1.7544-.02848 2.30132.69636h7.36326l.7206-.94382c.1769-.23372.4455-.37006.7296-.37045h3.3404c.1496-.00078.2863.08883.3515.23037.0652.14153.0472.30983-.0462.43266z" fill="#7b81ea"/></svg>