<?xml version="1.0" encoding="UTF-8"?>
<svg width="13px" height="18px" viewBox="0 0 13 18" version="1.1" xmlns="http://www.w3.org/2000/svg" xmlns:xlink="http://www.w3.org/1999/xlink">
    <!-- Generator: Sketch 51.2 (57519) - http://www.bohemiancoding.com/sketch -->
    <title>Group 8</title>
    <desc>Created with Sketch.</desc>
    <defs></defs>
    <g id="Page-1" stroke="none" stroke-width="1" fill="none" fill-rule="evenodd">
        <g id="SP-Funnel---Pricing---Monthly" transform="translate(-1189.000000, -2397.000000)" fill="#292533">
            <g id="Group-10" transform="translate(1021.000000, 2396.000000)">
                <g id="Group-8" transform="translate(168.000000, 1.000000)">
                    <path d="M9.26027071,7.74754639 C9.78516025,6.36975424 10.1948098,5.23231813 10.4886837,4.33523807 C10.7825575,3.43815801 10.9295242,2.88740915 10.9295242,2.68304901 C10.9295242,2.46350849 10.8805353,2.29318921 10.7825575,2.17203366 C10.6844607,2.05105062 10.5492799,1.99038659 10.3770152,1.99038659 C10.1576068,1.99038659 9.93421031,2.16639852 9.70700421,2.51836487 C9.47956001,2.87038873 9.22896067,3.43643296 8.95467047,4.21603757 L7.77917505,7.49770261 L9.26027071,7.74754639 L9.26027071,7.74754639 Z M7.69685228,10.8021382 C7.35988248,10.7870153 7.04041297,10.7529745 6.73886041,10.6999581 C6.43712929,10.6471143 6.14914839,10.5712699 5.87485818,10.4728849 C6.00009833,10.7152535 6.11176682,10.9573346 6.20986366,11.1995882 C6.30784146,11.4420143 6.38802134,11.6804728 6.45087951,11.9149637 C6.6389183,11.6878905 6.83683821,11.4817478 7.04452018,11.2961331 C7.25202357,11.1106335 7.4694676,10.9460068 7.69685228,10.8021382 L7.69685228,10.8021382 Z M6.36855674,7.36148168 L5.09901216,3.81858757 C4.76989963,2.91771242 4.51519308,2.32930012 4.33501156,2.05283316 C4.15453242,1.77648121 3.95881493,1.63836274 3.74720433,1.63836274 C3.58267783,1.63836274 3.44928279,1.69908427 3.34755493,1.82000981 C3.24564851,1.94116535 3.19475482,2.10389445 3.19475482,2.30831209 C3.19475482,2.65654085 3.33172134,3.26220358 3.60619012,4.12518529 C3.88042079,4.98816699 4.2918561,6.11991046 4.8404365,7.52041568 C4.88746108,7.43715359 4.95389074,7.37850211 5.0402612,7.34440375 C5.12645308,7.3103629 5.24401453,7.29334247 5.39288601,7.29334247 C5.43991059,7.29334247 5.53395975,7.29725257 5.67503349,7.30467025 C5.8160477,7.31226044 6.04712291,7.33135092 6.36855674,7.36148168 L6.36855674,7.36148168 Z M5.21657361,12.8461421 C5.34979007,12.8461421 5.47110158,12.7876057 5.58098433,12.6701302 C5.6906885,12.5527697 5.74557035,12.4259791 5.74557035,12.2897006 C5.74557035,12.1460045 5.63777097,11.8110586 5.42229126,11.2847479 C5.20663297,10.7586096 4.93835477,10.2419591 4.61709951,9.73473887 C4.38197662,9.35620685 4.15078236,9.07048217 3.92357626,8.87739231 C3.69613207,8.68435995 3.4807714,8.58781503 3.27701807,8.58781503 C3.11243204,8.58781503 2.93022668,8.68832755 2.73040198,8.8887776 C2.53057728,9.08940014 2.43063517,9.27673985 2.43063517,9.45085423 C2.43063517,9.6325588 2.52861297,9.90511566 2.72450903,10.2684673 C2.92028604,10.6318189 3.18296891,11.0179411 3.51214096,11.4267189 C3.85696803,11.8735052 4.18215192,12.2215614 4.48781168,12.4714052 C4.79341192,12.7211915 5.03615399,12.8461421 5.21657361,12.8461421 L5.21657361,12.8461421 Z M1.69008734,12.5735853 C1.79979152,12.702446 1.95265116,12.8915683 2.14854723,13.1413546 C2.66575807,13.8302794 3.14362303,14.174713 3.58267783,14.174713 C3.73137074,14.174713 3.86476578,14.1292869 3.98232722,14.0384346 C4.09982915,13.9475823 4.15863963,13.8529925 4.15863963,13.75455 C4.15863963,13.6410421 4.08024549,13.4519199 3.92357626,13.1867807 C3.76660941,12.921814 3.55130827,12.622979 3.27701807,12.2897006 C2.96356056,11.9036359 2.70284201,11.6216488 2.49533861,11.4437394 C2.28765664,11.2660024 2.12098725,11.1768751 1.99574711,11.1768751 C1.72127833,11.1768751 1.4685361,11.3188462 1.23752042,11.6027309 C1.00638568,11.8866155 0.890788554,12.2215614 0.890788554,12.6076261 C0.890788554,12.9181914 0.971087487,13.2645227 1.13174488,13.6466773 C1.29222369,14.0289469 1.52550132,14.4131715 1.83116108,14.7992363 C2.2935496,15.3973088 2.86736851,15.8570329 3.55327259,16.1788109 C4.23893856,16.500819 4.99716525,16.6613631 5.8278336,16.6613631 C7.35601337,16.6613631 8.63532001,16.1106717 9.66581306,15.0093465 C10.6961871,13.9078488 11.2116122,12.5282166 11.2116122,10.8702774 C11.2116122,10.3632297 11.1722663,9.96014454 11.0940507,9.66096452 C11.0157161,9.3618995 10.8864283,9.14425652 10.7061277,9.00797809 C10.3846939,8.75077412 9.75992174,8.51973331 8.83121607,8.31531567 C7.90262945,8.11095553 6.93279216,8.00871796 5.92188276,8.00871796 C5.63979481,8.00871796 5.43991059,8.0541441 5.32240867,8.14499639 C5.20484722,8.23584867 5.14603674,8.39104508 5.14603674,8.6105281 C5.14603674,9.12551105 5.44383923,9.49817792 6.03944421,9.72904623 C6.63487062,9.96014454 7.59875543,10.0754349 8.93115818,10.0754349 L9.41313035,10.0754349 C9.52283453,10.0754349 9.61099073,10.1151684 9.67759896,10.1946354 C9.74402862,10.2741024 9.78926746,10.3933604 9.81277975,10.5523519 C9.67938471,10.67345 9.40527308,10.8117985 8.98990914,10.9668224 C8.57442616,11.1219613 8.25704001,11.2752601 8.03781023,11.4267189 C7.56756445,11.7599398 7.18946302,12.1553773 6.90344644,12.6133188 C6.61719176,13.0714903 6.4743918,13.5047637 6.4743918,13.9135415 C6.4743918,14.1633853 6.53492851,14.4642903 6.65659716,14.8162567 C6.77802772,15.168338 6.838743,15.3859235 6.838743,15.4692431 L6.838743,15.5487101 L6.81523071,15.6508902 C6.47028459,15.6281771 6.19813728,15.4334197 5.99831258,15.0661005 C5.79848789,14.6989537 5.69854578,14.2088114 5.69854578,13.5955585 L5.69854578,13.4933784 C5.6356876,13.5463947 5.57509138,13.5842307 5.51634041,13.6069438 C5.45758945,13.6296568 5.39288601,13.6410421 5.32240867,13.6410421 C5.25181228,13.6410421 5.18520404,13.6353495 5.12252445,13.6239642 C5.05966628,13.6126364 4.98918893,13.5955585 4.91097337,13.5728454 C4.93448566,13.65628 4.95210499,13.7375295 4.96383138,13.8169965 C4.97561728,13.896521 4.98145071,13.9589676 4.98145071,14.0043938 C4.98145071,14.2844833 4.86787742,14.5250119 4.6406118,14.7254619 C4.41316761,14.9260844 4.14280604,15.026367 3.82946758,15.026367 C3.33582855,15.026367 2.83427273,14.7936011 2.32485963,14.3280119 C1.81532749,13.8624227 1.56079951,13.4064937 1.56079951,12.9597075 C1.56079951,12.8764454 1.5706211,12.8026135 1.59020476,12.7382119 C1.60960984,12.6740403 1.64306277,12.6190114 1.69008734,12.5735853 L1.69008734,12.5735853 Z M10.1066536,7.94057875 C10.8119628,8.06943949 11.3095899,8.35694672 11.5995352,8.80361795 C11.8893018,9.25040419 12.0344828,9.9544519 12.0344828,10.9157036 C12.0344828,12.8234291 11.4408421,14.3847658 10.2535608,15.5998289 C9.06633896,16.8147194 7.54798079,17.4222222 5.69854578,17.4222222 C4.96972433,17.4222222 4.26251038,17.295374 3.57678488,17.0417927 C2.8908808,16.7882113 2.30134734,16.4342899 1.80764879,15.980086 C1.24341337,15.4805709 0.820192161,14.9525351 0.538104213,14.3961511 C0.25595674,13.8397096 0.114942529,13.2702153 0.114942529,12.6871506 C0.114942529,12.0361193 0.259944901,11.5328666 0.549830595,11.1768751 C0.839656765,10.8210562 1.29805712,10.5789751 1.92521024,10.4501719 C1.80764879,10.1851477 1.72127833,9.96186959 1.66657505,9.78016502 C1.61175273,9.59846045 1.5843118,9.45844442 1.5843118,9.36005945 C1.5843118,9.01936338 1.77038628,8.67124962 2.14265427,8.31531567 C2.51474369,7.95949672 2.86558276,7.78158725 3.19475482,7.78158725 C3.33582855,7.78158725 3.48452146,7.80619787 3.64142879,7.85541911 C3.79815754,7.90481285 3.97822001,7.98600489 4.18215192,8.09957025 C3.57857062,6.44922124 3.13987297,5.1755642 2.86558276,4.27848414 C2.59111399,3.38140408 2.45420699,2.76251601 2.45420699,2.42187745 C2.45420699,1.95255064 2.57938761,1.57982627 2.83034409,1.30335931 C3.081122,1.02700736 3.42202044,0.888888889 3.85297987,0.888888889 C4.58948001,0.888888889 5.52223337,2.47863137 6.65070421,5.65817384 C6.84648122,6.20323005 6.99553128,6.62333562 7.09737818,6.91860554 C7.18357007,6.68411465 7.30488158,6.35083626 7.46178891,5.91934541 C8.59025975,2.7701062 9.56188279,1.1954866 10.3770152,1.1954866 C10.7767241,1.1954866 11.095896,1.32607238 11.3350666,1.58724395 C11.5740586,1.84841552 11.6935843,2.19871433 11.6935843,2.63762287 C11.6935843,2.97084375 11.5623322,3.58012908 11.2997684,4.46582385 C11.0370855,5.35157613 10.6395195,6.50977026 10.1066536,7.94057875 L10.1066536,7.94057875 Z" id="Shape"></path>
                </g>
            </g>
        </g>
    </g>
</svg>