<?xml version="1.0" encoding="UTF-8"?>
<svg width="36px" height="36px" viewBox="0 0 36 36" version="1.1" xmlns="http://www.w3.org/2000/svg" xmlns:xlink="http://www.w3.org/1999/xlink">
    <!-- Generator: Sketch 51.2 (57519) - http://www.bohemiancoding.com/sketch -->
    <title>TeikaLogo_H_black</title>
    <desc>Created with Sketch.</desc>
    <defs></defs>
    <g id="Page-1" stroke="none" stroke-width="1" fill="none" fill-rule="evenodd">
        <g id="SP-Funnel---Pricing---Monthly" transform="translate(-646.000000, -33.000000)" fill="#292533" fill-rule="nonzero">
            <g id="TeikaLogo_H_black" transform="translate(646.000000, 33.000000)">
                <g id="Group">
                    <polygon id="Shape" points="15.0267828 28.4192308 15.0267828 31.5 11.8848191 31.5 11.8848191 32.8153846 15.0267828 32.8153846 15.0267828 35.8961538 16.3587022 35.8961538 16.3587022 32.8153846 19.5006659 32.8153846 19.5006659 31.5 16.3587022 31.5 16.3587022 28.4192308"></polygon>
                    <rect id="Rectangle-path" x="21.1399513" y="31.5" width="4.64464196" height="1.28076923"></rect>
                    <polygon id="Shape" points="30.5658423 28.4192308 30.5658423 31.5 27.4238787 31.5 27.4238787 32.8153846 30.5658423 32.8153846 30.5658423 35.8961538 31.8977617 35.8961538 31.8977617 32.8153846 35.0055736 32.8153846 35.0055736 31.5 31.8977617 31.5 31.8977617 28.4192308"></polygon>
                    <path d="M0.102455337,6.95769231 L4.98615976,6.95769231 C6.93281117,6.95769231 8.6745519,8.20384615 9.0160697,10.0730769 L11.3725425,22.7076923 C11.5433014,23.6769231 12.4653994,24.3346154 13.4899528,24.3346154 L35.4495468,24.3346154 C35.9276717,24.3346154 36.3033412,24.7153846 36.3033412,25.1653846 L36.3033412,25.5807692 C36.3033412,26.0307692 35.9276717,26.4115385 35.4495468,26.4115385 L13.3874974,26.4115385 C11.440846,26.4115385 9.69910528,25.1653846 9.35758749,23.2961538 L7.00111473,10.6615385 C6.83035583,9.69230769 5.90825779,9.03461538 4.88370442,9.03461538 L0.102455337,9.03461538 L0.102455337,6.95769231 Z" id="Shape"></path>
                    <rect id="Rectangle-path" x="21.1399513" y="4.15384615" width="4.67879374" height="17.4115385"></rect>
                    <rect id="Rectangle-path" x="27.6970929" y="0.103846154" width="4.67879374" height="21.4961538"></rect>
                    <rect id="Rectangle-path" x="14.5486579" y="7.78846154" width="4.67879374" height="13.8115385"></rect>
                </g>
            </g>
        </g>
    </g>
</svg>