<svg fill="none" height="20" viewBox="0 0 25 20" width="25" xmlns="http://www.w3.org/2000/svg"><path clip-rule="evenodd" d="m10.6818.085743h13.4091c.2309-.0077456.4551.079129.6211.240722.166.161592.2597.384054.2596.616421v9.942814c0 .4734-.3816.8572-.8523.8572h-1.5625v2.0857c.0088.3353-.1776.6449-.4771.7924-.2994.1475-.657.1058-.9149-.1067l-3.4943-2.7714h-1.6478v4.1714c0 .4734-.3815.8572-.8522.8572h-7.44323l-3.72159 2.9714c-.25797.2125-.61548.2542-.91495.1067-.29948-.1475-.4859-.4572-.47709-.7924v-2.2857h-1.704547c-.470698 0-.8522731-.3838-.8522731-.8572v-10.57141c0-.47339.3815751-.85715.8522731-.85715h8.920457v-3.542854c0-.473387.38155-.857143.85225-.857143zm10.9943 9.942857h1.5625v-8.22857h-11.7045v2.68571h3.6364c.4707 0 .8522.38376.8522.85715v4.68571h1.9034c.1941-.0064.3846.0541.5398.1714l2.358 1.8857v-1.2c0-.4733.3815-.8571.8522-.8571z" fill="#7b81ea" fill-rule="evenodd"/></svg>