<?xml version="1.0" encoding="UTF-8"?>
<svg width="17px" height="19px" viewBox="0 0 17 19" version="1.1" xmlns="http://www.w3.org/2000/svg" xmlns:xlink="http://www.w3.org/1999/xlink">
    <!-- Generator: Sketch 51.2 (57519) - http://www.bohemiancoding.com/sketch -->
    <title>Group 7</title>
    <desc>Created with Sketch.</desc>
    <defs></defs>
    <g id="Page-1" stroke="none" stroke-width="1" fill="none" fill-rule="evenodd">
        <g id="SP-Funnel---Pricing---Monthly" transform="translate(-1145.000000, -2396.000000)" fill="#292533">
            <g id="Group-10" transform="translate(1021.000000, 2396.000000)">
                <g id="Group-7" transform="translate(124.000000, 0.000000)">
                    <path d="M4.1661632,13.3007264 L4.17781248,10.5098756 L4.70868662,10.5044065 L5.23900604,10.4978437 L5.23290404,10.0679772 L5.22624731,9.63756378 L3.69409016,9.63154784 L2.16304247,9.62553189 L2.16304247,10.0619612 L2.16304247,10.4978437 L2.68115789,10.5044065 L3.1992733,10.5098756 L3.2053753,13.2777564 C3.20814894,14.7997901 3.21591512,16.0587629 3.22201713,16.0746231 C3.23033804,16.0970462 3.33795516,16.1025152 3.69353544,16.0975931 L4.15451393,16.0915772 L4.1661632,13.3007264 Z M13.0035258,13.1043878 C12.9818914,13.0486036 13.0118467,12.4038039 13.0406925,12.3102833 C13.1078146,12.0904279 13.2503795,11.9832348 13.4750441,11.9832348 C13.6619873,11.9832348 13.7806989,12.0543323 13.8605797,12.2140282 C13.9110599,12.3152055 13.9160524,12.3584109 13.9238186,12.7324932 L13.9315848,13.1399366 L13.4739347,13.1399366 C13.0806329,13.1399366 13.0151751,13.1350145 13.0035258,13.1043878 L13.0035258,13.1043878 Z M13.857806,16.1112657 C14.3060258,15.9871185 14.6161184,15.6852275 14.7331659,15.2591894 C14.7525814,15.1864511 14.7753252,14.9791746 14.7830914,14.7992432 L14.7964048,14.4721946 L14.3648269,14.4721946 L13.9326942,14.4721946 L13.9221544,14.7653351 C13.9099504,15.0983996 13.8750026,15.2127025 13.7518531,15.3193488 C13.6209374,15.4325579 13.3801857,15.4407615 13.2237526,15.3368497 C13.0373642,15.2127025 12.9913218,15.0032383 13.0007522,14.3228898 L13.0074089,13.8405206 L13.9010748,13.8350515 L14.7947407,13.8284887 L14.7830914,13.1109507 C14.7686685,12.3102833 14.7520267,12.1888707 14.6155637,11.9044806 C14.3553965,11.3657802 13.6348056,11.093969 13.0362547,11.3089022 C12.5847066,11.4713327 12.3178827,11.7639263 12.2108203,12.2167628 C12.1730989,12.3764587 12.168661,12.5197475 12.168661,13.6912158 C12.168661,15.1279324 12.1736536,15.1864511 12.3223205,15.4806855 C12.588035,16.0040725 13.2531532,16.2775245 13.857806,16.1112657 L13.857806,16.1112657 Z M10.3191998,15.2930974 C10.3741178,15.2564548 10.4101751,15.2055928 10.4384662,15.1262917 C10.4745235,15.0218331 10.4778518,14.8889354 10.4728593,13.6567608 C10.4678667,12.3726304 10.4650931,12.2971576 10.4229338,12.2129344 C10.314762,11.9980012 10.0423908,11.9772188 9.79276347,12.1653538 L9.71066381,12.226607 L9.71066381,13.6912158 L9.71066381,15.1558245 L9.79220875,15.2170778 C9.97693298,15.3559914 10.1794085,15.3849773 10.3191998,15.2930974 L10.3191998,15.2930974 Z M10.860059,16.1200162 C10.9959673,16.081186 11.1601666,15.9220369 11.2339453,15.7596065 C11.3759555,15.4484181 11.3765103,15.4407615 11.3765103,13.6912158 C11.3765103,12.255046 11.3720725,12.0778492 11.3360152,11.9225284 C11.2189677,11.4253928 10.9637931,11.2082719 10.534434,11.2399923 C10.2942371,11.2585871 10.105075,11.3526545 9.8781915,11.5686816 C9.77945002,11.6622022 9.69124835,11.7393156 9.68126326,11.7393156 C9.67238762,11.7393156 9.66406671,11.2635092 9.66406671,10.6826972 L9.66406671,9.6260788 L9.24469278,9.6260788 L8.82531884,9.6260788 L8.82531884,12.864297 L8.82531884,16.1030621 L9.24469278,16.1030621 L9.66406671,16.1030621 L9.66406671,15.8848475 C9.66406671,15.7399179 9.67294235,15.6666328 9.6901389,15.6666328 C9.70400709,15.6666328 9.79831075,15.7431994 9.89982587,15.8372668 C10.2260056,16.1397047 10.5083619,16.2228341 10.860059,16.1200162 L10.860059,16.1200162 Z M6.39616745,16.0986869 C6.56369513,16.0374337 6.76062337,15.9028953 6.92648687,15.7366365 C7.00248453,15.66007 7.07848218,15.5977229 7.09512401,15.5977229 C7.1173131,15.5977229 7.12507929,15.66007 7.12507929,15.8503925 L7.12507929,16.1030621 L7.54445322,16.1030621 L7.96382715,16.1030621 L7.96382715,13.7027008 L7.96382715,11.3028863 L7.54445322,11.3028863 L7.12507929,11.3028863 L7.12507929,13.1541561 L7.12507929,15.0059728 L6.94423815,15.1826228 C6.80111847,15.3231771 6.74120791,15.3658356 6.65245152,15.3898994 C6.50267512,15.4309172 6.407262,15.4024782 6.34568725,15.2980195 C6.29909015,15.2203592 6.2979807,15.1842635 6.29132397,13.2608024 L6.28522197,11.3028863 L5.86584803,11.3028863 L5.44758355,11.3028863 L5.44758355,13.3816681 C5.44758355,15.6463974 5.44980246,15.6956187 5.57849923,15.9138334 C5.71939999,16.1522835 6.04890808,16.2272093 6.39616745,16.0986869 L6.39616745,16.0986869 Z M6.75230246,18.1014491 C6.20756013,18.0921518 5.56296686,18.0773854 5.31944152,18.0686349 C3.6846598,18.0106631 2.56244622,17.9488629 2.33833634,17.9040168 C2.01881334,17.840576 1.66156888,17.6272834 1.45410082,17.3762545 C1.12237382,16.9742801 0.944861046,16.4864418 0.858878295,15.7355427 C0.659731149,13.9898253 0.664168969,11.953702 0.871082298,10.2692378 C0.962057596,9.53091751 1.18783166,8.99768617 1.56671049,8.62579149 C1.78305418,8.41304586 1.99107697,8.29491461 2.26788595,8.2249109 C2.86810103,8.07341851 7.56442341,7.95309965 10.4212696,8.0154467 C12.0715837,8.05154236 13.8544777,8.1270151 14.3282149,8.18006478 C14.9411887,8.24897468 15.3716572,8.56180373 15.6695458,9.1551945 C15.8947651,9.60310883 15.966325,9.95203354 16.057855,11.0272467 C16.1294148,11.8782292 16.1471661,12.408726 16.1338527,13.3915124 C16.118875,14.5673559 16.0428774,15.6031919 15.9291582,16.1845508 C15.8093371,16.7992709 15.5264261,17.3232048 15.1597513,17.607048 C14.8773951,17.8263565 14.5761781,17.9242523 14.1018861,17.9505037 C13.9609853,17.9587072 13.7829178,17.9696453 13.7058107,17.9756612 C13.4328848,17.9964436 11.9695139,18.0544154 11.1668233,18.0768385 C9.97415934,18.1096527 7.88727477,18.1211377 6.75230246,18.1014491 Z M5.28054798,7.43390374 C5.2605778,7.40163641 5.26390616,5.5120833 5.28387635,5.24464727 C5.30994854,4.9017385 5.25114743,4.63156796 5.00152009,3.94137519 C4.92052988,3.71769148 4.77408184,3.28344975 4.67644982,2.97718354 C3.97028181,0.762769492 4.00744854,0.892385725 4.07512529,0.891838821 C4.5405416,0.888010494 5.11468448,0.890745014 5.12134121,0.897307861 C5.12577903,0.901683092 5.27666489,1.44202418 5.4569513,2.09885582 C5.63779244,2.75514054 5.78812358,3.30149758 5.79200667,3.31352946 C5.79533503,3.32446754 5.90128797,2.94218169 6.0272111,2.46364074 C6.29070662,1.45952511 6.43881885,0.90551142 6.44436612,0.900589284 C6.4560154,0.889651206 6.58693107,0.88746359 7.01573537,0.889651206 L7.49002732,0.892385725 L7.4794875,0.967311565 C7.47116658,1.0280179 7.14720577,2.09994962 6.80826731,3.18883537 C6.7716553,3.30915423 6.67679691,3.61924877 6.59858034,3.87848123 C6.52036378,4.1371668 6.42606012,4.44452681 6.38833865,4.56156425 L6.32010718,4.77485679 L6.32010718,6.10492717 C6.32010718,7.35241506 6.31733354,7.43609136 6.27961208,7.44593563 C6.19418405,7.46890559 5.29552562,7.45796752 5.28054798,7.43390374 Z M11.410286,7.51375172 C11.1761911,7.4831251 11.0391734,7.39397975 10.9454244,7.21076693 C10.8278222,6.98106728 10.8278222,6.98216109 10.8278222,4.6933681 L10.8278222,2.55770822 L11.30045,2.55770822 L11.772523,2.55770822 L11.7825081,4.5265624 C11.793048,6.6649568 11.7902743,6.61518854 11.9200805,6.64745588 C12.0393469,6.67644179 12.1713721,6.61354783 12.3355714,6.44838284 L12.493114,6.29032761 L12.499216,4.42374446 L12.5047632,2.55770822 L12.9768363,2.55114537 L13.4489093,2.54567633 L13.4489093,4.98979004 L13.4489093,7.43445065 L13.3845609,7.44757634 C13.3074538,7.46343655 12.5918554,7.46234275 12.5341638,7.44593563 C12.499216,7.43663826 12.4936687,7.40491783 12.4936687,7.21350145 L12.4936687,6.99145846 L12.3594247,7.12052778 C12.0509962,7.41640282 11.7181597,7.55422261 11.410286,7.51375172 L11.410286,7.51375172 Z M9.03161483,6.58018669 C9.19359524,6.45877402 9.19470469,6.44838284 9.2030256,5.07401324 C9.21023706,4.00590985 9.20635397,3.82433774 9.17362505,3.6788613 C9.12924686,3.48197588 9.05158502,3.38900221 8.8995897,3.34798441 C8.70321619,3.29657544 8.52348451,3.40705004 8.46024558,3.61870186 C8.41253902,3.78167924 8.41309375,6.20446369 8.46135504,6.36744106 C8.49796705,6.48994754 8.61501453,6.62393901 8.70155201,6.64253374 C8.81416168,6.66605061 8.95228881,6.63979922 9.03216956,6.58018669 L9.03161483,6.58018669 Z M8.66161164,7.51265791 C8.23890934,7.46234275 7.85060014,7.21732978 7.663657,6.88262457 C7.47338549,6.54190342 7.45563422,6.36361273 7.46672876,4.86290832 C7.4756044,3.70073745 7.47893277,3.62799923 7.52552987,3.46119353 C7.63703008,3.06468817 7.85281905,2.79451763 8.18731969,2.63099335 C8.646634,2.40730964 9.14200559,2.43629555 9.57524771,2.71302894 C9.85150196,2.8885851 10.0190296,3.14344234 10.1088955,3.52244677 C10.1482811,3.68979937 10.1521642,3.8183218 10.1521642,4.99197765 C10.1521642,6.41939693 10.1455075,6.50197943 9.99684055,6.81098016 C9.8542756,7.1090428 9.53142424,7.37155669 9.19470469,7.46398346 C9.04603774,7.50390745 8.78808949,7.52797122 8.66161164,7.51265791 L8.66161164,7.51265791 Z" id="Shape"></path>
                </g>
            </g>
        </g>
    </g>
</svg>