<svg height="15" viewBox="0 0 15 15" width="15" xmlns="http://www.w3.org/2000/svg"><path d="m.76750089 4.68458901h2.73319655v9.35897329h-2.73319655zm1.29692856-1.17064356h-.01978785c-.98939241 0-1.6308485-.7154423-1.6308485-1.62143396 0-.92451729.66041944-1.62584482 1.66959971-1.62584482 1.00835577 0 1.62837501.69956318 1.64816286 1.6231983 0 .90599166-.63980709 1.62408048-1.66712622 1.62408048zm12.37235215 10.53049895h-3.0992717v-4.84401185c0-1.26768259-.4848023-2.13221212-1.55087264-2.13221212-.81542425 0-1.26889578.58311635-1.47996616 1.14682489-.07915139.20113544-.06678399.48254862-.06678399.76484398v5.0645551h-3.07041446s.0395757-8.58001447 0-9.35985539h3.07041446v1.46881803c.18138861-.64222194 1.16253609-1.55879968 2.72824959-1.55879968 1.9425071 0 3.4686449 1.34707816 3.4686449 4.24501644z" fill="#292533" fill-rule="evenodd"/></svg>