<?xml version="1.0" encoding="UTF-8"?>
<svg width="16px" height="14px" viewBox="0 0 16 14" version="1.1" xmlns="http://www.w3.org/2000/svg" xmlns:xlink="http://www.w3.org/1999/xlink">
    <!-- Generator: Sketch 51.2 (57519) - http://www.bohemiancoding.com/sketch -->
    <title>Group 5</title>
    <desc>Created with Sketch.</desc>
    <defs></defs>
    <g id="Page-1" stroke="none" stroke-width="1" fill="none" fill-rule="evenodd">
        <g id="SP-Funnel---Pricing---Monthly" transform="translate(-1061.000000, -2400.000000)" fill="#292533">
            <g id="Group-10" transform="translate(1021.000000, 2396.000000)">
                <g id="Group-5" transform="translate(40.000000, 4.000000)">
                    <path d="M13.4033918,2.60483734 C14.0273765,2.21795304 14.5061681,1.60449067 14.7308718,0.873709214 C14.1466423,1.23283098 13.5010515,1.49254498 12.8122484,1.63314876 C12.2625887,1.02416422 11.4769902,0.644444444 10.60756,0.644444444 C8.93956763,0.644444444 7.58788883,2.04600446 7.58788883,3.77444589 C7.58788883,4.01983084 7.61295193,4.25894683 7.66480662,4.48731603 C5.15503984,4.35656347 2.92960959,3.11172741 1.43878739,1.2167108 C1.17864971,1.68061374 1.02999962,2.21795304 1.02999962,2.79111496 C1.02999962,3.87654036 1.56323863,4.83479545 2.37390021,5.39721059 C1.87868797,5.38109041 1.41286004,5.23869549 1.00493652,5.00584846 L1.00493652,5.04435778 C1.00493652,6.56144574 2.04548721,7.8268798 3.42914306,8.11346077 C3.1750551,8.18689714 2.90886772,8.22361532 2.6323094,8.22361532 C2.43785433,8.22361532 2.24772048,8.20480845 2.06450059,8.16809026 C2.44822526,9.41113519 3.56396524,10.3174475 4.88625972,10.3416277 C3.85175875,11.1816682 2.5493419,11.6813937 1.13457323,11.6813937 C0.89085621,11.6813937 0.649731922,11.6679603 0.413793103,11.6384066 C1.75077974,12.525912 3.33839736,13.0444444 5.04441651,13.0444444 C10.6015103,13.0444444 13.6384664,8.27466256 13.6384664,4.13804548 C13.6384664,4.00191953 13.6367379,3.86668914 13.6306882,3.73324988 C14.2209673,3.29173608 14.7343287,2.74006773 15.137931,2.11227631 C14.5960496,2.36124352 14.0135486,2.52960984 13.4033918,2.60483734 Z" id="Shape"></path>
                </g>
            </g>
        </g>
    </g>
</svg>